<mxfile host="app.diagrams.net" modified="2021-09-23T01:16:02.728Z" agent="5.0 (X11)" etag="kVfYR7alPcZs36wAbpTC" version="15.3.0" type="github">
  <diagram id="oL1W-WvUTz3m7DZN13d7" name="Page-1">
    <mxGraphModel dx="1422" dy="746" grid="1" gridSize="10" guides="1" tooltips="1" connect="1" arrows="1" fold="1" page="1" pageScale="1" pageWidth="827" pageHeight="1169" math="0" shadow="0">
      <root>
        <mxCell id="0" />
        <mxCell id="1" parent="0" />
        <mxCell id="Kqfe2xbXdFwDLwD3AbcV-1" value="Jugador/a" style="shape=umlActor;verticalLabelPosition=bottom;verticalAlign=top;html=1;outlineConnect=0;" vertex="1" parent="1">
          <mxGeometry x="120" y="130" width="30" height="60" as="geometry" />
        </mxCell>
        <mxCell id="Kqfe2xbXdFwDLwD3AbcV-2" value="" style="html=1;points=[];perimeter=orthogonalPerimeter;" vertex="1" parent="1">
          <mxGeometry x="130" y="219.55" width="10" height="50" as="geometry" />
        </mxCell>
        <mxCell id="Kqfe2xbXdFwDLwD3AbcV-3" value=":Buscaminas" style="rounded=0;whiteSpace=wrap;html=1;" vertex="1" parent="1">
          <mxGeometry x="414" y="160" width="120" height="40" as="geometry" />
        </mxCell>
        <mxCell id="Kqfe2xbXdFwDLwD3AbcV-4" value="" style="html=1;points=[];perimeter=orthogonalPerimeter;" vertex="1" parent="1">
          <mxGeometry x="469" y="219.55" width="10" height="50" as="geometry" />
        </mxCell>
        <mxCell id="Kqfe2xbXdFwDLwD3AbcV-5" value="" style="endArrow=classic;html=1;exitX=1.2;exitY=0.089;exitDx=0;exitDy=0;exitPerimeter=0;entryX=0;entryY=0.089;entryDx=0;entryDy=0;entryPerimeter=0;" edge="1" parent="1" source="Kqfe2xbXdFwDLwD3AbcV-2" target="Kqfe2xbXdFwDLwD3AbcV-4">
          <mxGeometry width="50" height="50" relative="1" as="geometry">
            <mxPoint x="230" y="39.55000000000001" as="sourcePoint" />
            <mxPoint x="470" y="19.55000000000001" as="targetPoint" />
          </mxGeometry>
        </mxCell>
        <mxCell id="Kqfe2xbXdFwDLwD3AbcV-6" value="1. Clickea una casilla" style="edgeLabel;html=1;align=center;verticalAlign=middle;resizable=0;points=[];" vertex="1" connectable="0" parent="Kqfe2xbXdFwDLwD3AbcV-5">
          <mxGeometry x="-0.37" y="-1" relative="1" as="geometry">
            <mxPoint x="45" y="-15" as="offset" />
          </mxGeometry>
        </mxCell>
        <mxCell id="Kqfe2xbXdFwDLwD3AbcV-7" value="" style="endArrow=classic;html=1;entryX=1.1;entryY=1.02;entryDx=0;entryDy=0;entryPerimeter=0;" edge="1" parent="1" target="Kqfe2xbXdFwDLwD3AbcV-2">
          <mxGeometry width="50" height="50" relative="1" as="geometry">
            <mxPoint x="474" y="270.55" as="sourcePoint" />
            <mxPoint x="280" y="39.55000000000001" as="targetPoint" />
            <Array as="points">
              <mxPoint x="360" y="269.55" />
            </Array>
          </mxGeometry>
        </mxCell>
        <mxCell id="Kqfe2xbXdFwDLwD3AbcV-8" value="2. Muestra resultado" style="edgeLabel;html=1;align=center;verticalAlign=middle;resizable=0;points=[];" vertex="1" connectable="0" parent="Kqfe2xbXdFwDLwD3AbcV-7">
          <mxGeometry x="0.2" relative="1" as="geometry">
            <mxPoint x="26" y="-11" as="offset" />
          </mxGeometry>
        </mxCell>
      </root>
    </mxGraphModel>
  </diagram>
</mxfile>
